<svg width="98" height="22" viewBox="0 0 98 22" fill="none" xmlns="http://www.w3.org/2000/svg">
<path d="M35.12 17V5.48H36.792V10.856L41.616 5.48H43.696L38.6 11.104L44.072 17H41.928L36.792 11.496V17H35.12ZM47.6381 17.24C46.9981 17.24 46.4621 17.1227 46.0301 16.888C45.5981 16.648 45.2701 16.3333 45.0461 15.944C44.8275 15.5493 44.7181 15.1173 44.7181 14.648C44.7181 14.2107 44.7955 13.8267 44.9501 13.496C45.1048 13.1653 45.3341 12.8853 45.6381 12.656C45.9421 12.4213 46.3155 12.232 46.7581 12.088C47.1421 11.976 47.5768 11.8773 48.0621 11.792C48.5475 11.7067 49.0568 11.6267 49.5901 11.552C50.1288 11.4773 50.6621 11.4027 51.1901 11.328L50.5821 11.664C50.5928 10.9867 50.4488 10.4853 50.1501 10.16C49.8568 9.82933 49.3501 9.664 48.6301 9.664C48.1768 9.664 47.7608 9.77067 47.3821 9.984C47.0035 10.192 46.7395 10.5387 46.5901 11.024L45.0301 10.544C45.2435 9.80267 45.6488 9.21333 46.2461 8.776C46.8488 8.33867 47.6488 8.12 48.6461 8.12C49.4195 8.12 50.0915 8.25333 50.6621 8.52C51.2381 8.78133 51.6595 9.19733 51.9261 9.768C52.0648 10.0507 52.1501 10.3493 52.1821 10.664C52.2141 10.9787 52.2301 11.3173 52.2301 11.68V17H50.7501V15.024L51.0381 15.28C50.6808 15.9413 50.2248 16.4347 49.6701 16.76C49.1208 17.08 48.4435 17.24 47.6381 17.24ZM47.9341 15.872C48.4088 15.872 48.8168 15.7893 49.1581 15.624C49.4995 15.4533 49.7741 15.2373 49.9821 14.976C50.1901 14.7147 50.3261 14.4427 50.3901 14.16C50.4808 13.904 50.5315 13.616 50.5421 13.296C50.5581 12.976 50.5661 12.72 50.5661 12.528L51.1101 12.728C50.5821 12.808 50.1021 12.88 49.6701 12.944C49.2381 13.008 48.8461 13.072 48.4941 13.136C48.1475 13.1947 47.8381 13.2667 47.5661 13.352C47.3368 13.432 47.1315 13.528 46.9501 13.64C46.7741 13.752 46.6328 13.888 46.5261 14.048C46.4248 14.208 46.3741 14.4027 46.3741 14.632C46.3741 14.856 46.4301 15.064 46.5421 15.256C46.6541 15.4427 46.8248 15.592 47.0541 15.704C47.2835 15.816 47.5768 15.872 47.9341 15.872ZM56.5395 17V9.864H53.5875V8.36H61.1635V9.864H58.2115V17H56.5395ZM64.8725 17.24C64.2325 17.24 63.6965 17.1227 63.2645 16.888C62.8325 16.648 62.5045 16.3333 62.2805 15.944C62.0618 15.5493 61.9525 15.1173 61.9525 14.648C61.9525 14.2107 62.0298 13.8267 62.1845 13.496C62.3392 13.1653 62.5685 12.8853 62.8725 12.656C63.1765 12.4213 63.5498 12.232 63.9925 12.088C64.3765 11.976 64.8112 11.8773 65.2965 11.792C65.7818 11.7067 66.2912 11.6267 66.8245 11.552C67.3632 11.4773 67.8965 11.4027 68.4245 11.328L67.8165 11.664C67.8272 10.9867 67.6832 10.4853 67.3845 10.16C67.0912 9.82933 66.5845 9.664 65.8645 9.664C65.4112 9.664 64.9952 9.77067 64.6165 9.984C64.2378 10.192 63.9738 10.5387 63.8245 11.024L62.2645 10.544C62.4778 9.80267 62.8832 9.21333 63.4805 8.776C64.0832 8.33867 64.8832 8.12 65.8805 8.12C66.6538 8.12 67.3258 8.25333 67.8965 8.52C68.4725 8.78133 68.8938 9.19733 69.1605 9.768C69.2992 10.0507 69.3845 10.3493 69.4165 10.664C69.4485 10.9787 69.4645 11.3173 69.4645 11.68V17H67.9845V15.024L68.2725 15.28C67.9152 15.9413 67.4592 16.4347 66.9045 16.76C66.3552 17.08 65.6778 17.24 64.8725 17.24ZM65.1685 15.872C65.6432 15.872 66.0512 15.7893 66.3925 15.624C66.7338 15.4533 67.0085 15.2373 67.2165 14.976C67.4245 14.7147 67.5605 14.4427 67.6245 14.16C67.7152 13.904 67.7658 13.616 67.7765 13.296C67.7925 12.976 67.8005 12.72 67.8005 12.528L68.3445 12.728C67.8165 12.808 67.3365 12.88 66.9045 12.944C66.4725 13.008 66.0805 13.072 65.7285 13.136C65.3818 13.1947 65.0725 13.2667 64.8005 13.352C64.5712 13.432 64.3658 13.528 64.1845 13.64C64.0085 13.752 63.8672 13.888 63.7605 14.048C63.6592 14.208 63.6085 14.4027 63.6085 14.632C63.6085 14.856 63.6645 15.064 63.7765 15.256C63.8885 15.4427 64.0592 15.592 64.2885 15.704C64.5178 15.816 64.8112 15.872 65.1685 15.872ZM70.7419 17V15.584C71.0619 15.6427 71.3045 15.6347 71.4699 15.56C71.6405 15.48 71.7659 15.336 71.8459 15.128C71.9312 14.92 72.0032 14.6507 72.0619 14.32C72.1525 13.8347 72.2299 13.2827 72.2939 12.664C72.3632 12.04 72.4245 11.3653 72.4779 10.64C72.5312 9.91467 72.5792 9.15467 72.6219 8.36H78.8299V17H77.1499V9.936H74.1259C74.0939 10.3573 74.0565 10.8053 74.0139 11.28C73.9765 11.7493 73.9339 12.216 73.8859 12.68C73.8379 13.144 73.7872 13.5787 73.7339 13.984C73.6805 14.3893 73.6245 14.736 73.5659 15.024C73.4592 15.6 73.3019 16.0587 73.0939 16.4C72.8912 16.736 72.6032 16.952 72.2299 17.048C71.8565 17.1493 71.3605 17.1333 70.7419 17ZM84.8251 17.24C83.9611 17.24 83.2118 17.0453 82.5771 16.656C81.9425 16.2667 81.4518 15.7307 81.1051 15.048C80.7638 14.36 80.5931 13.568 80.5931 12.672C80.5931 11.7707 80.7691 10.9787 81.1211 10.296C81.4731 9.608 81.9665 9.07467 82.6011 8.696C83.2358 8.312 83.9771 8.12 84.8251 8.12C85.6891 8.12 86.4385 8.31467 87.0731 8.704C87.7078 9.09333 88.1985 9.62933 88.5451 10.312C88.8918 10.9947 89.0651 11.7813 89.0651 12.672C89.0651 13.5733 88.8891 14.368 88.5371 15.056C88.1905 15.7387 87.6998 16.2747 87.0651 16.664C86.4305 17.048 85.6838 17.24 84.8251 17.24ZM84.8251 15.664C85.6518 15.664 86.2678 15.3867 86.6731 14.832C87.0838 14.272 87.2891 13.552 87.2891 12.672C87.2891 11.7707 87.0811 11.0507 86.6651 10.512C86.2545 9.968 85.6411 9.696 84.8251 9.696C84.2651 9.696 83.8038 9.824 83.4411 10.08C83.0785 10.3307 82.8091 10.68 82.6331 11.128C82.4571 11.5707 82.3691 12.0853 82.3691 12.672C82.3691 13.5787 82.5771 14.304 82.9931 14.848C83.4091 15.392 84.0198 15.664 84.8251 15.664ZM90.8231 17V8.36H96.9031V9.936H92.4951V17H90.8231Z" fill="white"/>
<path d="M0 4H25M0 11H18M0 18H25" stroke="white" stroke-width="2"/>
</svg>
